<svg width="224" height="302" viewBox="0 0 224 302" fill="none" xmlns="http://www.w3.org/2000/svg">
<path fill-rule="evenodd" clip-rule="evenodd" d="M209.521 11.3966C212.682 9.77603 216.896 11.6555 215.138 15.9396C213.255 20.5272 206.293 20.5838 202.361 20.4929C202.754 20.4716 204.021 16.2647 204.455 15.629C205.735 13.7537 207.577 12.3946 209.521 11.3966ZM173.097 93.6473C172.3 94.3523 173.032 93.7134 173.097 93.6473V93.6473ZM212.566 32.1463C214.416 33.6083 214.504 36.1895 212.993 37.9366C211.194 40.0166 207.908 39.9409 205.455 39.7382C204.346 39.6464 198.422 39.156 199.826 38.1538C199.718 38.196 199.492 38.2983 199.251 38.4374C199.121 38.9282 198.984 39.4172 198.842 39.9041C198.877 39.9251 198.907 39.9477 198.944 39.9687C198.904 39.9504 198.875 39.9306 198.84 39.9121C197.415 44.7781 195.387 49.4114 192.732 53.7459C193.726 53.3415 194.755 53.0354 195.798 52.8991C198.889 52.495 205.39 54.9779 201.933 59.232C198.618 63.3102 193.458 58.9349 189.696 58.3316C186.047 63.5965 182.024 68.642 177.807 73.5191C178.066 73.6027 178.292 73.777 178.422 74.0483C180.114 73.1612 181.876 71.8921 183.442 71.5485C185.701 71.0534 190.333 70.7532 192.04 72.8435C194.14 75.4138 191.889 77.5015 189.408 77.9945C185.811 78.7094 181.101 76.8923 177.64 75.6646C177.244 75.737 176.812 75.6172 176.553 75.2898C176.477 75.2639 176.4 75.2384 176.326 75.2137C172.056 80.0669 167.623 84.7599 163.217 89.35C163.264 89.3475 163.311 89.3445 163.36 89.3419C164.509 88.5626 165.742 87.9232 167.078 87.5882C170.169 86.8093 173.807 86.8055 176.315 89.1178C178.814 91.4203 179.699 95.447 177.114 98.0324C171.94 103.208 164.316 91.4078 161.705 90.9152C157.228 95.5309 152.493 99.8434 147.684 104.069C148.23 103.897 148.79 103.771 149.369 103.714C154.085 103.247 165.154 109.224 159.366 115.104C154.323 120.228 148.486 110.366 144.422 106.916C139.89 110.855 135.333 114.766 130.905 118.83C133.32 118.167 135.655 118.069 138.244 118.878C140.923 119.716 145.246 121.807 143.552 125.547C141.83 129.35 136.638 127.619 133.935 126.412C132.46 125.753 129.503 123.531 126.907 122.595C119.84 129.492 113.72 137.088 109.086 146.037C106.193 151.625 103.997 157.594 102.452 163.73C101.466 167.646 99.5225 174.223 99.9116 179.32C98.0572 169.118 101.41 156.864 105.022 147.745C108.343 139.359 113.314 131.998 119.136 125.371C117.675 120.829 105.378 114.277 112.729 110.056C116.633 107.825 120.631 111.527 121.485 115.449C122.071 118.144 121.178 121.53 120.23 124.146C122.061 122.126 123.965 120.171 125.927 118.281C128.638 115.668 131.415 113.132 134.217 110.627C129.599 106.142 125.228 93.3185 131.42 91.2213C140.565 88.1332 136.162 105.625 135.524 108.903C135.343 108.914 135.202 108.857 135.098 108.736C135.149 109.036 135.209 109.357 135.281 109.681C140.646 104.913 146.09 100.238 151.354 95.3554C150.88 94.993 150.126 93.6081 149.533 92.871C148.196 91.2093 146.916 89.4736 145.981 87.5297C144.504 84.4578 143.079 79.5579 146.995 77.751C151.254 75.7824 153.277 81.3243 153.307 84.6303C153.327 86.9167 152.725 89.0887 152.411 91.3299C152.313 92.0288 152.691 95.1795 151.77 93.8241C151.813 94.3239 151.82 94.6858 151.798 94.9424C152.743 94.0614 153.681 93.1709 154.613 92.274C154.57 92.1608 154.538 92.0373 154.531 91.8941C154.481 90.9085 155.44 90.5289 156.113 90.8176C157.342 89.6094 158.56 88.3861 159.756 87.1385C162.291 84.4954 164.863 81.7767 167.416 79.0002C166.862 78.5081 167.083 77.8267 166.564 77.3043C166.047 76.7831 165.028 76.4948 164.42 76.0107C162.89 74.7922 161.621 73.0171 160.703 71.27C159.189 68.3834 157.231 62.328 161.656 60.9521C166.218 59.5318 168.533 65.3608 168.827 69.0052C168.884 69.7112 168.372 76.0728 167.981 78.3828C172.706 73.2228 177.354 67.8692 181.565 62.4223C180.288 62.4101 176.668 59.706 175.937 58.9681C174.151 57.1683 171.313 53.1915 174.443 51.087C177.226 49.2204 180.657 51.924 181.847 54.5515C182.043 54.9841 182.733 59.011 182.786 60.8178C184.529 58.508 186.192 56.1846 187.738 53.8537C188.77 52.3041 189.734 50.7135 190.636 49.0891C190.419 48.9619 190.214 48.74 190.021 48.4642C185.38 47.6497 179.461 40.1624 184.914 37.5573C187.51 36.3186 190.325 38.8755 191.597 40.969C191.857 41.3973 192.279 43.5506 192.623 45.249C195.217 39.8676 197.2 34.1704 198.709 28.3291C198.305 28.2253 197.963 27.9062 197.918 27.3574C195.664 26.0291 193.884 24.9231 192.311 22.369C191.334 20.7825 189.573 17.1579 192.445 16.2774C196.183 15.1317 198.53 21.0329 198.836 23.9395C198.871 24.2769 198.87 25.2582 198.858 26.1574C198.988 26.1391 199.119 26.1412 199.247 26.1647C200.106 22.5477 200.791 18.8841 201.336 15.2143C199.296 14.5356 198.943 3.46082 200.301 1.8839C203.337 -1.64701 205.479 3.45356 205.317 6.14931C205.125 9.32788 203.732 12.2193 202.073 14.7854C201.895 15.0571 201.946 15.044 201.9 14.6654C201.874 14.8525 201.814 14.9906 201.724 15.0906C201.809 16.7638 201.976 18.4768 201.896 19.9573C201.666 24.1972 201.189 28.4618 200.495 32.6472C200.326 33.6651 200.133 34.6747 199.917 35.6756C201.556 34.2316 203.767 32.9486 204.632 32.5474C206.877 31.5072 210.336 30.384 212.566 32.1463ZM99.6483 179.334C99.7525 180.813 100.011 182.167 100.492 183.283C100.131 182.012 99.8538 180.691 99.6483 179.334Z" fill="white"/>
<g opacity="0.7">
<path opacity="0.7" fill-rule="evenodd" clip-rule="evenodd" d="M148.028 111.539C139.248 111.068 128.39 116.366 127.453 126.232C126.772 133.401 126.983 140.549 125.93 147.706C125.088 153.427 123.307 158.919 120.878 164.13C118.543 169.141 113.698 173.406 112.438 178.759C111.635 182.17 112.085 186.968 113.192 190.305C114.539 194.361 113.823 194.041 111.14 197.445C105.881 204.115 101.145 210.955 97.7966 218.922C92.9731 230.397 89.8108 243.81 91.601 256.371C91.8288 257.966 92.0988 263.69 94.2234 264.09C96.5963 264.537 95.4867 261.264 95.3601 260.206C94.5527 253.459 93.8353 247.561 94.8092 240.708C98.5671 214.267 116.915 196.846 128.862 174.406C129.519 173.248 130.906 170.493 131.87 168.675C133.392 165.804 134.922 160.343 136.982 158.215C140.863 154.205 137.295 162.266 136.539 163.804C135.583 165.751 134.531 167.82 133.552 169.525C129.069 177.431 124.066 186.061 119.437 194.211C139.458 198.927 153.559 174.043 158.932 157.683C163.359 144.205 168.655 112.692 148.028 111.539Z" fill="#F38181"/>
<path opacity="0.7" fill-rule="evenodd" clip-rule="evenodd" d="M30.351 86.5086C45.0282 87.7125 54.4507 97.7247 58.8369 111.729C61.2009 119.275 61.4718 127.028 62.7855 134.784C64.7618 146.452 69.0138 155.294 77.3238 163.607C79.8976 166.182 81.7944 168.825 83.1427 171.653C85.8193 174.477 88.1492 177.672 89.8609 181.579C92.0476 186.568 92.6663 192.554 90.1416 197.527C89.4629 198.865 87.7695 201.549 86.0145 202.768C92.5852 217.235 96.1979 233.079 95.7907 248.903C95.5446 258.455 95.0936 268.011 94.5673 277.552C94.4256 280.113 93.6187 284.343 92.4067 280.047C91.2974 276.118 92.6885 269.949 92.8172 265.844C93.4435 245.845 93.9789 227.661 86.0156 208.977C85.1805 207.019 84.2952 205.076 83.3731 203.149C83.319 203.116 83.2687 203.077 83.2178 203.039C83.1827 203.067 83.1508 203.097 83.1156 203.125C83.0567 203.016 82.9761 202.887 82.882 202.743C82.6175 202.461 82.3866 202.104 82.167 201.706C81.4607 200.694 80.6613 199.505 80.657 198.854C80.657 198.849 80.6597 198.842 80.6597 198.837C75.7299 190.517 70.0836 182.657 64.3161 174.95C64.3594 175.006 58.0602 166.139 59.0343 171.043C59.5037 173.406 64.1371 177.906 66.0084 180.408C70.148 185.977 75.009 193.032 79.0485 199.855C79.5921 200.178 80.3601 201.763 80.9155 202.944C81.2222 203.542 81.5082 204.146 81.7895 204.671C67.4762 209.56 56.342 199.712 48.7497 188.259C48.7405 188.245 48.7324 188.231 48.7238 188.218C46.4133 185.053 44.0466 181.91 41.0898 179.408C36.1568 175.234 30.8739 174.497 25.0578 172.442C9.19663 166.84 2.45291 145.589 0.311195 129.821C-2.10527 112.032 9.71474 84.7546 30.351 86.5086Z" fill="#ABA8B7"/>
<path opacity="0.7" fill-rule="evenodd" clip-rule="evenodd" d="M59.3441 36.6924C74.4079 52.9002 81.6856 75.3807 87.4482 96.5146C93.8843 120.119 98.1355 144.088 98.2987 168.629C98.4056 184.753 98.8299 200.978 97.9196 217.083C97.5966 222.802 97.045 228.532 96.1681 234.19C96.0959 234.655 94.1339 247.289 92.2566 244.345C91.1889 242.671 94.2677 231.239 94.5004 229.335C95.8091 218.611 96.1132 207.808 96.0493 197.006C95.9444 179.222 96.4516 161.528 94.708 143.809C94.4481 141.164 94.2423 138.385 93.6345 135.797C92.9892 133.045 93.8111 134.246 91.7088 133.157C89.6661 132.098 87.1419 132.249 85.0225 130.921C76.6155 125.651 72.3149 112.114 68.9679 103.232C65.1394 93.0748 62.8127 82.2437 60.9543 71.5547C59.5898 63.7013 58.6141 55.8956 58.062 47.941C57.888 45.434 57.8777 42.8124 57.4011 40.3473C57.2727 39.6824 56.6285 38.5061 56.6519 37.9173C56.7014 36.671 57.429 35.938 57.4886 34.8908C58.1192 35.4775 58.7383 36.0784 59.3441 36.6924Z" fill="#ABA8B7"/>
<path opacity="0.7" fill-rule="evenodd" clip-rule="evenodd" d="M141.482 252.636C141.482 279.44 120.464 301.168 94.5363 301.168C68.6086 301.168 47.5901 279.44 47.5901 252.636" fill="#ABA8B7"/>
<path opacity="0.7" fill-rule="evenodd" clip-rule="evenodd" d="M90.7689 252.79H93.2495C93.0774 249.573 92.85 246.361 92.3298 243.179C90.3398 231.011 84.1176 213.139 70.4708 211.164C69.9674 211.09 68.1154 211.078 65.8721 211.214C64.8089 210.6 63.6179 210.228 62.3631 210.143C50.7442 209.257 37.7687 218.948 32.1642 229.032C27.6461 237.163 28.4072 247.839 31.1979 256.477C33.0666 262.26 37.1451 270.505 43.9465 270.585C52.4559 270.686 52.8663 259.813 53.0308 253.457C53.2495 245.007 54.2824 237.646 60.7234 231.886C62.2245 230.544 63.8653 229.363 65.3816 228.04C67.756 225.969 70.3799 223.849 70.6857 220.422C71.108 215.695 68.5268 214.844 64.5858 215.722C63.914 215.872 57.1467 219.011 58.1487 216.53C58.4546 215.772 59.5719 215.171 60.9821 214.721C64.6313 214.311 68.9832 213.835 70.2348 214.119C83.737 217.182 88.994 236.517 90.3901 248.802C90.5408 250.128 90.6626 251.458 90.7689 252.79Z" fill="#F38181"/>
</g>
</svg>
