<svg width="300" height="431" viewBox="0 0 300 431" fill="none" xmlns="http://www.w3.org/2000/svg">
<path fill-rule="evenodd" clip-rule="evenodd" d="M191.954 19.715C195.669 33.4066 200.511 64.1822 195.57 69.0098H164.311C164.308 68.9543 164.305 68.899 164.302 68.8438C152.716 67.5617 143.705 57.7385 143.705 45.8107V23.1748C143.705 10.3757 154.08 0 166.879 0H169.035C180.659 0 190.283 8.55695 191.954 19.715Z" fill="#191847"/>
<path fill-rule="evenodd" clip-rule="evenodd" d="M155.844 41.4885C150.877 35.6584 147.516 28.5135 148.077 20.5075C149.696 -2.56004 181.807 2.51453 188.053 14.1571C194.299 25.7996 193.557 55.3318 185.484 57.4127C182.265 58.2425 175.407 56.2097 168.427 52.0025L172.808 82.9983H146.938L155.844 41.4885Z" fill="#D4A181"/>
<path fill-rule="evenodd" clip-rule="evenodd" d="M162.837 37.5916C164.029 50.3949 163.551 65.016 159.999 68.4866H128.74C126.999 38.2261 143.831 49.9443 143.831 21.4532C144.88 20.4279 145.872 19.413 146.853 18.5378L146.818 17.6999C152.231 6.61855 159.098 1.0779 167.42 1.0779C179.902 1.0779 183.842 6.88597 187.196 11.8171C184.688 20.4242 174.953 21.7005 166.303 27.0655C165.284 26.2372 163.984 25.7407 162.568 25.7407C159.293 25.7407 156.639 28.3949 156.639 31.6691C156.639 34.9433 159.293 37.5976 162.568 37.5976C162.658 37.5976 162.748 37.5956 162.837 37.5916Z" fill="#191847"/>
<path fill-rule="evenodd" clip-rule="evenodd" d="M105.34 278.193C131.198 285.426 153.507 289.042 172.268 289.042C191.029 289.042 208.456 283.473 224.547 272.335C199.242 264.911 178.403 261.2 162.029 261.2C145.654 261.2 126.758 266.864 105.34 278.193Z" fill="#B96161"/>
<path fill-rule="evenodd" clip-rule="evenodd" d="M194.653 299.467C194.404 299.092 194.194 298.684 194.027 298.242C190.57 289.102 135.207 190.492 129.692 172.464H192.023C196.216 186.171 215.091 272.191 217.747 289.353C226.128 316.425 243.384 404.099 245.586 410.173C247.904 416.563 234.865 423.219 231.39 415.364C225.862 402.865 212.689 368.281 206.823 347.164C201.324 327.367 196.847 309.556 194.653 299.467Z" fill="#BA8B72"/>
<path fill-rule="evenodd" clip-rule="evenodd" d="M143.658 311.506C118.347 317.903 25.7648 329.468 19.4114 331.282C12.8757 333.148 7.14522 319.677 15.2236 316.759C28.0778 312.115 63.4968 301.387 84.9714 297.009C102.244 293.487 118.006 290.614 128.588 288.931C127.692 259.206 123.594 187.871 126.28 172.464H181.431C178.855 187.238 157.081 295.04 153.034 305.831C151.75 309.683 147.918 311.386 143.658 311.506Z" fill="#D4A181"/>
<path fill-rule="evenodd" clip-rule="evenodd" d="M15.8104 313.172C12.4308 312.543 9.95402 312.368 8.38012 312.645C6.46589 312.983 3.72878 313.794 0.168796 315.079C0.560355 317.3 4.07936 337.257 10.7258 374.951C16.1438 375.6 18.7623 374.212 18.5813 370.788C18.4004 367.364 18.2797 364.514 18.2192 362.238L25.7182 332.223C25.8625 331.645 25.5113 331.06 24.9338 330.916C24.9239 330.913 24.914 330.911 24.904 330.909L20.2495 329.885C18.2545 327.037 17.0859 324.643 16.7438 322.703C16.4659 321.127 16.7186 318.838 17.5021 315.836L17.5022 315.836C17.8028 314.684 17.1127 313.506 15.9606 313.205C15.911 313.192 15.8609 313.181 15.8104 313.172Z" fill="#E4E4E4"/>
<path fill-rule="evenodd" clip-rule="evenodd" d="M227.434 414.347C226.228 417.566 225.625 419.974 225.625 421.573C225.625 423.516 225.949 426.353 226.596 430.082C228.851 430.082 249.117 430.082 287.392 430.082C288.972 424.859 288.06 422.039 284.656 421.623C281.252 421.206 278.425 420.83 276.173 420.495L247.916 407.898C247.372 407.655 246.735 407.899 246.493 408.443C246.488 408.452 246.484 408.462 246.481 408.471L244.664 412.877C241.513 414.347 238.953 415.083 236.982 415.083C235.382 415.083 233.171 414.436 230.351 413.143L230.351 413.143C229.269 412.647 227.989 413.122 227.493 414.205C227.472 414.251 227.452 414.299 227.434 414.347Z" fill="#E4E4E4"/>
<path fill-rule="evenodd" clip-rule="evenodd" d="M126.458 172.464C150.761 165.511 173.756 165.511 195.444 172.464C202.989 206.889 221.323 220.553 224.547 273.333C187.898 291.542 142.626 260.346 104.9 278.104C94.121 253.264 109.212 193.445 126.458 172.464Z" fill="#F38181"/>
<path fill-rule="evenodd" clip-rule="evenodd" d="M231.014 129.683L273.573 123.878C282.086 119.142 289.918 115.937 297.069 114.261C299.081 114.202 302.282 114.933 297.513 118.909C292.745 122.884 287.906 127.282 288.756 129.403C289.605 131.525 294.04 130.736 294.775 133.999C295.265 136.174 288.067 136.528 273.183 135.059L238.65 148.75L231.014 129.683ZM97.3222 139.534L120.925 139.622C95.0439 197.865 81.5489 228.36 80.4403 231.108C77.9461 237.289 83.2242 246.703 85.4813 251.762C78.13 255.051 78.9133 242.869 69.6398 247.183C61.1753 251.121 54.7365 258.257 44.9571 252.222C43.7547 251.481 42.4372 248.687 45.6206 246.505C53.5515 241.066 64.9804 231.549 66.5246 228.416C68.6305 224.144 78.8963 194.516 97.3222 139.534Z" fill="#D4A181"/>
<path fill-rule="evenodd" clip-rule="evenodd" d="M161.974 64.674L180.455 65.9051C185.006 107.082 209.797 133.091 265.303 124.286L272.678 177.313C220.799 184.018 175.301 163.248 165.976 107.012C163.562 92.4546 161.657 77.3046 161.974 64.674Z" fill="#AFB9C5"/>
<path fill-rule="evenodd" clip-rule="evenodd" d="M152.856 59.3017L180.857 65.7145C180.857 113.874 196.198 144.601 204.066 180.009H128.445C127.38 192.244 126.726 204.82 126.385 217.736H69.762C82.593 149.466 109.675 96.6488 151.008 59.2845H152.842L152.856 59.3017Z" fill="#C5CFD6"/>
<path fill-rule="evenodd" clip-rule="evenodd" d="M140.376 111.303C138.428 141.313 139.574 164.215 143.815 180.009H128.445C130.556 155.771 134.279 132.869 140.376 111.303V111.303Z" fill="black" fill-opacity="0.1"/>
</svg>
