<svg width="267" height="40" viewBox="0 0 267 40" fill="none" xmlns="http://www.w3.org/2000/svg">
<path d="M4.95375 9.0938V12.9426C5.59403 11.5842 6.605 10.4522 7.95296 9.62206C9.30092 8.79193 10.8174 8.37686 12.4686 8.37686C15.4004 8.37686 17.5909 9.43339 19.0736 11.5087C20.5564 13.5841 21.2978 16.565 21.2978 20.4893V33.7714H16.1081V20.6402C16.1081 18.263 15.67 16.5273 14.7939 15.433C13.9177 14.3387 12.6708 13.7727 11.0196 13.7727C9.9749 13.7727 9.03133 14.0746 8.12146 14.6406C7.24529 15.2066 6.53761 16.0745 5.99842 17.2065C5.45924 18.3385 5.18965 19.6591 5.18965 21.2062V33.7714H0V9.13153H4.95375V9.0938Z" fill="#625772"/>
<path d="M47.9874 22.9419H30.8009C30.9694 24.2626 31.3401 25.3946 31.9129 26.3379C32.4858 27.2813 33.2272 28.036 34.0697 28.5265C34.9459 29.017 35.8557 29.2812 36.8667 29.2812C38.1473 29.2812 39.1919 28.9793 40.0344 28.4133C40.8432 27.8473 41.4498 27.0171 41.8542 25.9606H47.5156C47.1449 27.4699 46.4372 28.8661 45.4936 30.1867C44.5164 31.4697 43.3032 32.5262 41.8542 33.2809C40.4051 34.0733 38.7875 34.4506 37.0352 34.4506C34.8785 34.4506 32.9239 33.8846 31.2053 32.7149C29.4529 31.5452 28.105 29.9604 27.1277 27.9605C26.1504 25.9606 25.6449 23.7721 25.6449 21.3949C25.6449 19.0177 26.1504 16.8291 27.1277 14.8293C28.105 12.8294 29.4866 11.2446 31.2053 10.0748C32.9576 8.90511 34.8785 8.33911 37.0352 8.33911C39.1919 8.33911 41.1128 8.90511 42.7977 10.0748C44.4827 11.2068 45.7969 12.7539 46.7068 14.6783C47.6504 16.6027 48.1222 18.7158 48.1222 20.9798C48.1222 21.5081 48.0548 22.1873 47.9874 22.9419ZM42.8314 18.4517C42.764 17.5461 42.4607 16.7159 41.9216 15.9235C41.3824 15.1311 40.6747 14.5274 39.7985 14.0746C38.9223 13.6218 38.0125 13.3954 37.0015 13.3954C35.6198 13.3954 34.373 13.8105 33.2946 14.6783C32.2162 15.5462 31.4412 16.7914 31.0368 18.4517H42.8314Z" fill="#625772"/>
<path d="M73.1268 22.9419H55.9404C56.1089 24.2626 56.4795 25.3946 57.0524 26.3379C57.6253 27.2813 58.3667 28.036 59.2092 28.5265C60.0853 29.017 60.9952 29.2812 62.0062 29.2812C63.2867 29.2812 64.3314 28.9793 65.1739 28.4133C65.9827 27.8473 66.5892 27.0171 66.9936 25.9606H72.655C72.2844 27.4699 71.5767 28.8661 70.6331 30.1867C69.6558 31.4697 68.4427 32.5262 66.9936 33.2809C65.5446 34.0733 63.927 34.4506 62.1747 34.4506C60.0179 34.4506 58.0634 33.8846 56.3447 32.7149C54.5924 31.5452 53.2444 29.9604 52.2672 27.9605C51.2899 25.9606 50.7844 23.7721 50.7844 21.3949C50.7844 19.0177 51.2899 16.8291 52.2672 14.8293C53.2444 12.8294 54.6261 11.2446 56.3447 10.0748C58.0971 8.90511 60.0179 8.33911 62.1747 8.33911C64.3314 8.33911 66.2522 8.90511 67.9372 10.0748C69.6221 11.2068 70.9364 12.7539 71.8463 14.6783C72.7898 16.6027 73.2616 18.7158 73.2616 20.9798C73.2279 21.5081 73.1942 22.1873 73.1268 22.9419ZM67.9709 18.4517C67.9035 17.5461 67.6002 16.7159 67.061 15.9235C66.5218 15.1311 65.8142 14.5274 64.938 14.0746C64.0618 13.6218 63.1519 13.3954 62.141 13.3954C60.7593 13.3954 59.5124 13.8105 58.4341 14.6783C57.3557 15.5462 56.5806 16.7914 56.1762 18.4517H67.9709Z" fill="#625772"/>
<path d="M81.0461 32.7132C79.4285 31.5435 78.1817 29.9964 77.2718 27.9966C76.3619 25.9967 75.9238 23.8082 75.9238 21.3932C75.9238 18.9783 76.3619 16.7898 77.2718 14.8276C78.1817 12.8655 79.4285 11.2807 81.0461 10.1109C82.6636 8.94121 84.5171 8.3752 86.6064 8.3752C87.7522 8.3752 88.7969 8.6016 89.8078 9.0544C90.8188 9.5072 91.6276 10.1109 92.3689 10.8279C93.0766 11.5448 93.6495 12.3372 94.0539 13.1673L93.9528 10.6015V0.0361214H99.1087V33.7698H94.1887V29.6191C93.481 31.0152 92.47 32.185 91.1558 33.1283C89.8415 34.0716 88.3251 34.5244 86.5727 34.5244C84.4834 34.449 82.6636 33.883 81.0461 32.7132ZM90.7177 28.1098C91.695 27.4306 92.5037 26.4872 93.0766 25.3175C93.6495 24.1478 93.9528 22.8271 93.9528 21.431C93.9528 19.9971 93.6832 18.7141 93.1103 17.5444C92.5374 16.3747 91.7624 15.4313 90.7514 14.7521C89.7741 14.0729 88.6621 13.7333 87.4826 13.7333C86.2694 13.7333 85.1574 14.0729 84.1801 14.7144C83.2028 15.3936 82.4277 16.2992 81.8549 17.469C81.282 18.6387 81.0124 19.9594 81.0124 21.431C81.0124 22.8648 81.282 24.1855 81.8549 25.3552C82.4277 26.525 83.1691 27.4683 84.1801 28.1475C85.1574 28.8267 86.2694 29.1663 87.5163 29.1663C88.6621 29.1286 89.7404 28.789 90.7177 28.1098Z" fill="#625772"/>
<path d="M113.195 33.1677C111.847 32.2998 110.769 31.0924 110.027 29.583V33.7337H105.107V3.05176e-05H110.297V9.88618L110.162 13.1313C110.903 11.6974 111.948 10.5277 113.262 9.69752C114.577 8.82965 116.026 8.41458 117.61 8.41458C119.665 8.41458 121.485 8.98059 123.102 10.1503C124.72 11.3201 126.001 12.9049 126.944 14.867C127.888 16.8291 128.326 19.0554 128.326 21.4326C128.326 23.8098 127.854 26.0361 126.944 27.9982C126.001 29.9981 124.754 31.5452 123.136 32.7149C121.519 33.8846 119.699 34.4506 117.677 34.4506C116.059 34.4506 114.577 34.0356 113.195 33.1677ZM119.935 28.1869C120.912 27.5454 121.687 26.6398 122.294 25.5078C122.867 24.3381 123.17 22.9797 123.17 21.4326C123.17 19.9233 122.867 18.6026 122.294 17.4329C121.721 16.2631 120.946 15.3575 119.935 14.7161C118.957 14.0746 117.845 13.735 116.666 13.735C115.486 13.735 114.408 14.0746 113.431 14.7538C112.454 15.433 111.645 16.3763 111.072 17.5461C110.499 18.7158 110.196 20.0365 110.196 21.4326C110.196 22.9042 110.499 24.2249 111.072 25.3946C111.645 26.5643 112.454 27.47 113.431 28.1492C114.408 28.8284 115.486 29.1302 116.666 29.1302C117.879 29.1302 118.957 28.7906 119.935 28.1869Z" fill="#625772"/>
<path d="M137.896 33.2054C136.346 32.3753 135.133 31.0546 134.257 29.2057C133.381 27.3945 132.943 25.055 132.943 22.225V9.09379H138.065V22.0741C138.065 24.3758 138.503 26.1115 139.379 27.2813C140.255 28.4887 141.536 29.0547 143.254 29.0547C144.973 29.0547 146.254 28.451 147.13 27.2435C148.006 26.0361 148.444 24.3003 148.444 22.0363V9.05605H153.6V22.1873C153.6 25.0173 153.162 27.319 152.286 29.1302C151.41 30.9414 150.196 32.2621 148.646 33.1299C147.096 33.9601 145.31 34.4129 143.288 34.4129C141.232 34.4506 139.446 34.0356 137.896 33.2054Z" fill="#625772"/>
<path d="M163.002 31.7716C161.62 30.4886 160.913 27.9982 160.913 24.3758V14.1123H156.363V9.13153H160.913V1.92445L166.102 1.88671V9.13153H172.707V14.1123H166.102V24.6399C166.102 27.5077 167.181 28.9416 169.304 28.9416H172.707V33.7714H168.225C166.136 33.7337 164.417 33.0545 163.002 31.7716Z" fill="#625772"/>
<path d="M180.728 31.7716C179.346 30.4886 178.638 27.9982 178.638 24.3758V14.1123H174.089V9.13153H178.638V1.92445L183.828 1.88671V9.13153H190.433V14.1123H183.828V24.6399C183.828 27.5077 184.906 28.9416 187.029 28.9416H190.433V33.7714H185.951C183.862 33.7337 182.109 33.0545 180.728 31.7716Z" fill="#625772"/>
<path d="M198.083 32.7149C196.33 31.5452 194.949 29.9604 193.938 27.9982C192.927 25.9984 192.455 23.8098 192.455 21.4326C192.455 19.0554 192.96 16.8669 193.938 14.867C194.949 12.8671 196.33 11.2823 198.083 10.1126C199.835 8.94287 201.823 8.37686 204.014 8.37686C206.238 8.37686 208.226 8.94287 209.978 10.1126C211.731 11.2823 213.146 12.8671 214.123 14.867C215.134 16.8669 215.606 19.0554 215.606 21.4326C215.606 23.8098 215.101 26.0361 214.123 28.0359C213.112 30.0358 211.731 31.6206 209.978 32.7526C208.192 33.9223 206.204 34.4884 204.014 34.4884C201.823 34.4506 199.835 33.8846 198.083 32.7149ZM207.35 28.0737C208.327 27.4322 209.102 26.5266 209.675 25.3569C210.248 24.1871 210.518 22.8665 210.518 21.3949C210.518 19.9233 210.248 18.6403 209.675 17.4706C209.102 16.3009 208.327 15.3953 207.35 14.7161C206.373 14.0369 205.261 13.735 204.047 13.735C202.834 13.735 201.722 14.0746 200.745 14.7161C199.768 15.3953 198.993 16.3009 198.42 17.4706C197.847 18.6403 197.577 19.961 197.577 21.3949C197.577 22.8665 197.847 24.1871 198.42 25.3569C198.993 26.5266 199.768 27.4322 200.745 28.0737C201.722 28.7152 202.834 29.0547 204.047 29.0547C205.261 29.0547 206.373 28.7529 207.35 28.0737Z" fill="#625772"/>
<path d="M225.076 9.0938V12.9426C225.716 11.5842 226.727 10.4522 228.075 9.62206C229.423 8.79193 230.939 8.37686 232.59 8.37686C235.522 8.37686 237.713 9.43339 239.195 11.5087C240.678 13.5841 241.42 16.565 241.42 20.4893V33.7714H236.23V20.6402C236.23 18.263 235.792 16.5273 234.916 15.433C234.039 14.3387 232.793 13.7727 231.141 13.7727C230.097 13.7727 229.153 14.0746 228.243 14.6406C227.367 15.2066 226.659 16.0745 226.12 17.2065C225.581 18.3385 225.311 19.6591 225.311 21.2062V33.7714H220.156V9.13153H225.076V9.0938Z" fill="#625772"/>
<path d="M260.513 40C263.911 40 266.667 37.2449 266.667 33.8462C266.667 30.4475 263.911 27.6923 260.513 27.6923C257.114 27.6923 254.359 30.4475 254.359 33.8462C254.359 37.2449 257.114 40 260.513 40Z" fill="#F38181"/>
</svg>
