<svg width="26" height="26" viewBox="0 0 26 26" fill="none" xmlns="http://www.w3.org/2000/svg">
<path fill-rule="evenodd" clip-rule="evenodd" d="M21.387 2.44817C21.6739 2.16121 22.0631 2 22.4689 2C22.8748 2 23.2639 2.16121 23.5509 2.44817C23.8379 2.73512 23.9991 3.12432 23.9991 3.53014C23.9991 3.93596 23.8379 4.32515 23.5509 4.61211L12.7156 15.4474C12.5195 15.6435 12.2738 15.7826 12.0048 15.8499C10.8841 16.13 9.86904 15.1149 10.1492 13.9943C10.2165 13.7253 10.3556 13.4795 10.5517 13.2834L21.387 2.44817ZM22.4689 0C21.5327 0 20.6348 0.371924 19.9727 1.03395L8.64192 12.3648C8.51376 12.4929 8.42284 12.6535 8.37889 12.8294L7.18617 17.6002C7.10097 17.941 7.20082 18.3015 7.4492 18.5499C7.69758 18.7982 8.05807 18.8981 8.39885 18.8129L13.1697 17.6202C13.3456 17.5762 13.5061 17.4853 13.6343 17.3571L24.9651 6.02632C25.6271 5.36429 25.9991 4.46639 25.9991 3.53014C25.9991 2.59389 25.6271 1.69598 24.9651 1.03395C24.3031 0.371924 23.4052 0 22.4689 0ZM3.38544 2.53014C2.48756 2.53014 1.62646 2.88682 0.991571 3.52171C0.356679 4.15661 0 5.0177 0 5.91558V22.6136C0 23.5115 0.356679 24.3726 0.991571 25.0075C1.62646 25.6424 2.48756 25.9991 3.38544 25.9991H20.0835C20.9814 25.9991 21.8425 25.6424 22.4774 25.0075C23.1123 24.3726 23.4689 23.5115 23.4689 22.6136V14.2646C23.4689 13.7123 23.0212 13.2646 22.4689 13.2646C21.9166 13.2646 21.4689 13.7123 21.4689 14.2646V22.6136C21.4689 22.9811 21.323 23.3335 21.0631 23.5933C20.8033 23.8531 20.4509 23.9991 20.0835 23.9991H3.38544C3.018 23.9991 2.66561 23.8531 2.40579 23.5933C2.14597 23.3335 2 22.9811 2 22.6136V5.91558C2 5.54814 2.14597 5.19575 2.40579 4.93593C2.6656 4.67611 3.018 4.53014 3.38544 4.53014H11.7345C12.2867 4.53014 12.7345 4.08243 12.7345 3.53014C12.7345 2.97786 12.2867 2.53014 11.7345 2.53014H3.38544Z" fill="#625772"/>
<path fill-rule="evenodd" clip-rule="evenodd" d="M21.387 2.44817C21.6739 2.16121 22.0631 2 22.4689 2C22.8748 2 23.2639 2.16121 23.5509 2.44817C23.8379 2.73512 23.9991 3.12432 23.9991 3.53014C23.9991 3.93596 23.8379 4.32515 23.5509 4.61211L12.7156 15.4474C12.5195 15.6435 12.2738 15.7826 12.0048 15.8499C10.8841 16.13 9.86904 15.1149 10.1492 13.9943C10.2165 13.7253 10.3556 13.4795 10.5517 13.2834L21.387 2.44817ZM22.4689 0C21.5327 0 20.6348 0.371924 19.9727 1.03395L8.64192 12.3648C8.51376 12.4929 8.42284 12.6535 8.37889 12.8294L7.18617 17.6002C7.10097 17.941 7.20082 18.3015 7.4492 18.5499C7.69758 18.7982 8.05807 18.8981 8.39885 18.8129L13.1697 17.6202C13.3456 17.5762 13.5061 17.4853 13.6343 17.3571L24.9651 6.02632C25.6271 5.36429 25.9991 4.46639 25.9991 3.53014C25.9991 2.59389 25.6271 1.69598 24.9651 1.03395C24.3031 0.371924 23.4052 0 22.4689 0ZM3.38544 2.53014C2.48756 2.53014 1.62646 2.88682 0.991571 3.52171C0.356679 4.15661 0 5.0177 0 5.91558V22.6136C0 23.5115 0.356679 24.3726 0.991571 25.0075C1.62646 25.6424 2.48756 25.9991 3.38544 25.9991H20.0835C20.9814 25.9991 21.8425 25.6424 22.4774 25.0075C23.1123 24.3726 23.4689 23.5115 23.4689 22.6136V14.2646C23.4689 13.7123 23.0212 13.2646 22.4689 13.2646C21.9166 13.2646 21.4689 13.7123 21.4689 14.2646V22.6136C21.4689 22.9811 21.323 23.3335 21.0631 23.5933C20.8033 23.8531 20.4509 23.9991 20.0835 23.9991H3.38544C3.018 23.9991 2.66561 23.8531 2.40579 23.5933C2.14597 23.3335 2 22.9811 2 22.6136V5.91558C2 5.54814 2.14597 5.19575 2.40579 4.93593C2.6656 4.67611 3.018 4.53014 3.38544 4.53014H11.7345C12.2867 4.53014 12.7345 4.08243 12.7345 3.53014C12.7345 2.97786 12.2867 2.53014 11.7345 2.53014H3.38544Z" fill="url(#paint0_linear)"/>
<defs>
<linearGradient id="paint0_linear" x1="12.9995" y1="0" x2="12.9995" y2="25.9991" gradientUnits="userSpaceOnUse">
<stop stop-color="#625772"/>
<stop offset="1" stop-color="white" stop-opacity="0"/>
</linearGradient>
</defs>
</svg>
