<svg width="24" height="24" viewBox="0 0 24 24" fill="none" xmlns="http://www.w3.org/2000/svg">
<path d="M17.5 1H6.5C3.46243 1 1 3.46243 1 6.5V17.5C1 20.5376 3.46243 23 6.5 23H17.5C20.5376 23 23 20.5376 23 17.5V6.5C23 3.46243 20.5376 1 17.5 1Z" stroke="white" stroke-width="2" stroke-linecap="round" stroke-linejoin="round"/>
<path d="M16.4 11.3071C16.5357 12.2226 16.3794 13.1575 15.9531 13.979C15.5269 14.8005 14.8525 15.4666 14.0258 15.8827C13.1991 16.2988 12.2623 16.4436 11.3486 16.2966C10.4348 16.1496 9.59073 15.7182 8.93632 15.0638C8.2819 14.4094 7.8505 13.5652 7.70347 12.6515C7.55644 11.7378 7.70127 10.801 8.11735 9.9743C8.53344 9.14763 9.1996 8.4732 10.0211 8.04695C10.8426 7.6207 11.7775 7.46433 12.693 7.60009C13.6268 7.73856 14.4913 8.1737 15.1589 8.84122C15.8264 9.50875 16.2615 10.3733 16.4 11.3071Z" stroke="white" stroke-width="2" stroke-linecap="round" stroke-linejoin="round"/>
<path d="M18.05 5.94995H18.061" stroke="white" stroke-width="2" stroke-linecap="round" stroke-linejoin="round"/>
</svg>
