<svg width="51" height="30" viewBox="0 0 51 30" fill="none" xmlns="http://www.w3.org/2000/svg">
<path d="M3.67295 6.74255V9.59624C4.14768 8.58906 4.89727 7.74973 5.89671 7.13423C6.89615 6.51873 8.02052 6.21098 9.24483 6.21098C11.4186 6.21098 13.0427 6.99435 14.1421 8.5331C15.2415 10.0719 15.7912 12.2821 15.7912 15.1917V25.0397H11.9433V15.3036C11.9433 13.541 11.6185 12.2541 10.9689 11.4427C10.3192 10.6314 9.39475 10.2117 8.17043 10.2117C7.39587 10.2117 6.69626 10.4356 6.02164 10.8552C5.372 11.2749 4.84729 11.9184 4.44752 12.7577C4.04774 13.597 3.84785 14.5762 3.84785 15.7233V25.0397H0V6.77053H3.67295V6.74255Z" fill="#625772"/>
<path d="M26.9074 24.5921C25.908 23.9486 25.1084 23.0533 24.5587 21.9342V25.0117H20.9107V0H24.7586V7.33007L24.6587 9.73612C25.2083 8.67298 25.9829 7.80568 26.9574 7.19018C27.9318 6.5467 29.0062 6.23895 30.1806 6.23895C31.7047 6.23895 33.054 6.65861 34.2533 7.52591C35.4526 8.39321 36.4021 9.56826 37.1017 11.0231C37.8013 12.4779 38.1261 14.1286 38.1261 15.8911C38.1261 17.6537 37.7763 19.3044 37.1017 20.7592C36.4021 22.242 35.4776 23.3891 34.2783 24.2564C33.0789 25.1237 31.7297 25.5433 30.2305 25.5433C29.0312 25.5433 27.9318 25.2356 26.9074 24.5921ZM31.9046 20.8991C32.6292 20.4235 33.2039 19.752 33.6536 18.9127C34.0784 18.0454 34.3033 17.0382 34.3033 15.8911C34.3033 14.772 34.0784 13.7928 33.6536 12.9255C33.2289 12.0582 32.6542 11.3868 31.9046 10.9112C31.18 10.4355 30.3555 10.1838 29.481 10.1838C28.6064 10.1838 27.8069 10.4355 27.0823 10.9391C26.3577 11.4427 25.758 12.1422 25.3333 13.0095C24.9085 13.8768 24.6836 14.856 24.6836 15.8911C24.6836 16.9823 24.9085 17.9615 25.3333 18.8288C25.758 19.6961 26.3577 20.3675 27.0823 20.8711C27.8069 21.3747 28.6064 21.5985 29.481 21.5985C30.3805 21.5985 31.18 21.3467 31.9046 20.8991Z" fill="#625772"/>
<path d="M46.0036 29.275C48.3134 29.275 50.1858 27.4026 50.1858 25.0929C50.1858 22.7832 48.3134 20.9108 46.0036 20.9108C43.6939 20.9108 41.8215 22.7832 41.8215 25.0929C41.8215 27.4026 43.6939 29.275 46.0036 29.275Z" fill="#F38181"/>
</svg>
