<svg width="75" height="71" viewBox="0 0 75 71" fill="none" xmlns="http://www.w3.org/2000/svg">
<path fill-rule="evenodd" clip-rule="evenodd" d="M5.24922 5.24922C6.36923 4.12921 7.88829 3.5 9.47222 3.5H50.5694C51.3979 3.5 52.0694 2.82843 52.0694 2C52.0694 1.17157 51.3979 0.5 50.5694 0.5H9.47222C7.09264 0.5 4.81052 1.44528 3.1279 3.1279C1.44528 4.81052 0.5 7.09264 0.5 9.47222V61.7778C0.5 64.1574 1.44528 66.4395 3.1279 68.1221C4.81052 69.8047 7.09264 70.75 9.47222 70.75H61.7778C64.1574 70.75 66.4395 69.8047 68.1221 68.1221C69.8047 66.4395 70.75 64.1574 70.75 61.7778V35.625C70.75 34.7966 70.0784 34.125 69.25 34.125C68.4216 34.125 67.75 34.7966 67.75 35.625V61.7778C67.75 63.3617 67.1208 64.8808 66.0008 66.0008C64.8808 67.1208 63.3617 67.75 61.7778 67.75H9.47222C7.88829 67.75 6.36923 67.1208 5.24922 66.0008C4.12921 64.8808 3.5 63.3617 3.5 61.7778V9.47222C3.5 7.88829 4.12921 6.36923 5.24922 5.24922ZM74.0468 6.79674C74.6326 6.21096 74.6326 5.26121 74.0468 4.67542C73.461 4.08964 72.5112 4.08964 71.9254 4.67542L35.625 40.9759L25.4773 30.8282C24.8915 30.2424 23.9418 30.2424 23.356 30.8282C22.7702 31.414 22.7702 32.3637 23.356 32.9495L34.5643 44.1579C35.1501 44.7436 36.0999 44.7436 36.6857 44.1579L74.0468 6.79674Z" fill="#625772"/>
</svg>
